<?xml version="1.0" encoding="UTF-8"?>
<svg width="16px" height="16px" viewBox="0 0 16 16" version="1.1" xmlns="http://www.w3.org/2000/svg" xmlns:xlink="http://www.w3.org/1999/xlink">
    <!-- Generator: sketchtool 53.2 (72643) - https://sketchapp.com -->
    <title>9067AB69-BEF3-4574-A56B-4B59CDA54DB8@1x</title>
    <desc>Created with sketchtool.</desc>
    <g id="Page-1" stroke="none" stroke-width="1" fill="none" fill-rule="evenodd">
        <g id="Adding-a-New-Folder" transform="translate(-858.000000, -269.000000)" fill="#202020">
            <g id="Group" transform="translate(387.000000, 246.000000)">
                <g id="Icons/Close-Icon" transform="translate(471.000000, 23.000000)">
                    <g id="Close-Icon">
                        <path d="M15.745448,1.48303137 C16.0848507,1.14420171 16.0848507,0.593386306 15.745448,0.254556644 C15.4060452,-0.0848522145 14.8563982,-0.0848522145 14.5169955,0.254556644 L8,6.77167008 L1.48300452,0.254556644 C1.14360181,-0.0848522145 0.593954751,-0.0848522145 0.254552036,0.254556644 C-0.0848506787,0.593386306 -0.0848506787,1.14420171 0.254552036,1.48303137 L6.77154751,8.0001448 L0.254552036,14.5172582 C-0.0848506787,14.8560879 -0.0848506787,15.4069033 0.254552036,15.745733 C0.424253394,15.9154374 0.646660633,16 0.869067873,16 C1.09147511,16 1.31330317,15.9154374 1.48300452,15.745733 L8,9.22861952 L14.5169955,15.745733 C14.6866968,15.9154374 14.9091041,16 15.1315113,16 C15.3539186,16 15.5757466,15.9154374 15.745448,15.745733 C16.0848507,15.4069033 16.0848507,14.8560879 15.745448,14.5172582 L9.22845249,8.0001448 L15.745448,1.48303137 Z" id="4A"></path>
                    </g>
                </g>
            </g>
        </g>
    </g>
</svg>